<svg version="1.0" xmlns="http://www.w3.org/2000/svg"
     xmlns:xlink="http://www.w3.org/1999/xlink"
     x="0px" y="0px"
     xml:space="preserve">

<!--
TIREBUYER
https://s3-us-west-2.amazonaws.com/tirebuyerimages/brands/svg/allBrands.svg#bfg

SWILLE
https://s3.amazonaws.com/all-brands-svg/allBrands.svg
-->
    <symbol id="bfg"
     xmlns="http://www.w3.org/2000/svg" xmlns:xlink="http://www.w3.org/1999/xlink" x="0px" y="0px" width="130px" height="32px"
     viewBox="0 0 130 32" xml:space="preserve">
    <path d="M23.111,19.729"/>
    <g>
    <g>
        <g>
            <g>
                <g>
                    <path fill="#00448D" d="M127.615,7.449c0-0.654,0.535-1.189,1.195-1.189c0.658,0,1.189,0.535,1.189,1.189
                        c0,0.661-0.531,1.196-1.189,1.196C128.15,8.645,127.615,8.109,127.615,7.449z M129.811,7.449c0-0.579-0.421-1.032-1-1.032
                        c-0.582,0-1.006,0.454-1.006,1.032c0,0.585,0.424,1.038,1.006,1.038C129.39,8.487,129.811,8.034,129.811,7.449z M129.405,8.116
                        h-0.195l-0.381-0.614h-0.299v0.614h-0.163V6.785h0.582c0.353,0,0.472,0.132,0.472,0.353c0,0.261-0.182,0.359-0.418,0.365
                        L129.405,8.116z M128.779,7.374c0.188,0,0.466,0.031,0.466-0.239c0-0.208-0.17-0.233-0.334-0.233h-0.381v0.472H128.779z"/>
                </g>
            </g>
        </g>
    </g>
    </g>
    <path fill="#00448D" d="M86.483,19.803h-4.069l0.449-1.785h-0.091c-0.851,1.482-2.22,1.819-3.968,1.819
    c-2.959,0-4.373-1.013-3.696-3.621l0.584-2.252c0.779-3.001,2.372-4.203,5.728-4.203c1.468,0,2.757,0.244,3.078,1.52h0.16
    l1.396-5.001h4.068L86.483,19.803z M80.869,17.36c1.655,0,2.25-0.319,2.83-2.552c0.497-1.914,0.621-2.57-1.5-2.57
    c-2.004,0-2.211,0.619-2.718,2.57C78.857,17.21,79.191,17.36,80.869,17.36z"/>
    <g>
    <polygon fill="#00448D" points="101.256,19.798 97.135,19.798 99.802,9.791 103.923,9.791 	"/>
    <polygon fill="#00448D" points="104.205,8.729 100.105,8.729 100.745,6.263 104.871,6.263 	"/>
    </g>
    <g>
    <path fill="#00448D" d="M115.115,15.784c-0.479,1.839-1.137,2.853-2.233,3.396c-1.078,0.562-2.57,0.656-4.737,0.656
        c-4.73,0-5.552-1.145-4.544-5.028c0.867-3.34,2.149-5.047,7.159-5.047c3.518,0,5.841,0.3,4.93,3.808h-4.008
        c0.159-0.524,0.173-0.844-0.054-1.05c-0.226-0.207-0.673-0.281-1.512-0.281c-1.421,0-1.924,0.318-2.507,2.57
        c-0.6,2.308-0.337,2.552,1.178,2.552c1.817,0,2.003-0.356,2.319-1.576H115.115z"/>
    </g>
    <g>
    <path fill="#00448D" d="M44.353,10.461c0.394-1.368-1.068-1.35-2.414-1.35c-3.229,0-3.533,0.792-4.168,2.97l-0.595,2.196
        c-0.648,2.395,0.314,2.647,2.647,2.647c2.287,0,3.004-0.415,3.511-2.287h-3.12l0.669-2.502h7.681l-0.639,2.357
        c-1.233,4.556-2.893,5.383-8.902,5.383c-5.292,0-7.788-0.72-6.603-5.094l0.946-3.493c1.209-4.465,4.439-5.131,9.372-5.131
        c4.351,0,7.44,0.018,6.166,4.303H44.353z"/>
    </g>
    <path fill="#00448D" d="M121.15,11.713h0.103c0.986-1.558,2.304-1.952,4.19-1.952c2.703,0,3.67,1.032,3.12,3.152l-1.834,6.89h-3.981
    l1.612-6.139c0.226-0.957,0.021-1.426-1.284-1.426c-1.795,0-2.321,0.862-2.634,2.063l-1.459,5.501h-3.955l3.656-13.523h3.955
    L121.15,11.713z"/>
    <path fill="#00448D" d="M61.133,14.809c-1.052,4.053-2.267,5.028-7.434,5.028c-5.01,0-5.823-1.088-4.8-5.028
    c1.047-4.034,2.312-5.047,7.415-5.047C61.441,9.761,62.214,10.643,61.133,14.809z M52.907,14.809
    c-0.556,2.139-0.43,2.552,1.504,2.552c1.864,0,2.158-0.413,2.713-2.552s0.481-2.57-1.383-2.57
    C53.807,12.238,53.462,12.67,52.907,14.809z"/>
    <path fill="#00448D" d="M74.413,14.809c-1.052,4.053-2.354,5.028-7.434,5.028c-5.01,0-5.823-1.088-4.8-5.028
    c1.047-4.034,2.312-5.047,7.415-5.047C74.721,9.761,75.494,10.643,74.413,14.809z M66.188,14.809
    c-0.555,2.139-0.429,2.552,1.505,2.552c1.864,0,2.157-0.413,2.713-2.552s0.481-2.57-1.384-2.57
    C67.088,12.238,66.742,12.67,66.188,14.809z"/>
    <path fill="#EC1C24" d="M5.734,6.276h8.85c3.341,0,5.178,0.521,4.378,3.474c-0.463,1.71-1.191,2.827-3.489,3.115l-0.039,0.144
    c2.455,0.126,2.554,1.333,2.096,3.024c-0.897,3.312-2.948,3.771-6.513,3.771H2.087L5.734,6.276z M8.763,11.694h3.238
    c1.57,0,2.009-0.216,2.302-1.296c0.219-0.81,0.146-1.116-1.101-1.152H9.427L8.763,11.694z M7.377,16.843h3.386
    c1.458,0,2.136-0.27,2.433-1.368c0.303-1.116-0.169-1.278-1.626-1.278H8.085L7.377,16.843z"/>
    <g>
    <polygon fill="#EC1C24" points="24.598,11.865 31.459,11.865 30.668,14.818 23.815,14.818 22.492,19.803 17.99,19.803
        21.646,6.275 33.559,6.275 32.759,9.219 25.314,9.219 	"/>
    </g>
    <g>
    <path fill="#00448D" d="M93.501,13.88l-1.561,5.919l-4.112,0.004l2.679-9.972h3.961l-0.436,1.619c0,0,1.047-1.614,3.643-1.614
        c1.547,0,1.188,0,1.188,0l-0.676,2.529h-2.703C94.562,12.387,93.822,12.735,93.501,13.88z"/>
    </g>
    <g>
    <g>
        <polygon fill="#00448D" points="113.367,25.808 114.188,22.795 1.282,22.795 0.469,25.808 		"/>
    </g>
    </g>
    <path d="M65.739,24.346"/>
    <path stroke="#999999" stroke-width="0.1175" d="M0,25.822"/>
    <g>
    <polygon fill="#00448D" points="115.248,25.806 114.735,25.806 115.786,21.895 114.424,21.895 114.538,21.449 117.619,21.449
        117.497,21.895 116.309,21.895 	"/>
    </g>
    <g>
    <polygon fill="#00448D" points="117.292,25.806 116.832,25.806 117.645,22.756 118.105,22.756 	"/>
    <polygon fill="#00448D" points="118.316,21.911 117.865,21.911 117.998,21.449 118.441,21.449 	"/>
    </g>
    <g>
    <line fill="#00448D" x1="120.067" y1="23.12" x2="120.042" y2="23.12"/>
    <path fill="#00448D" d="M119.943,23.117c-0.665,0.01-0.78,0.248-0.911,0.789l-0.511,1.899h-0.452l0.813-3.05h0.441l-0.105,0.378
        l-0.009,0.012c0.24-0.337,0.616-0.421,0.948-0.421c0.158,0,0.158,0,0.158,0l-0.108,0.393H119.943z"/>
    </g>
    <path fill="#00448D" d="M122.403,24.882l-0.028,0.11c-0.202,0.808-0.782,0.849-1.406,0.849c-1.093,0-1.159-0.396-0.868-1.557
    c0.316-1.267,0.646-1.562,1.648-1.562c0.906,0,1.138,0.227,0.855,1.353l-0.093,0.326h-2.016c-0.225,0.946-0.191,1.068,0.566,1.068
    c0.575,0,0.771-0.041,0.879-0.471l0.029-0.116H122.403z M122.184,24.011c0.185-0.818,0.079-0.917-0.527-0.917
    c-0.792,0-0.856,0.261-1.051,0.917H122.184z"/>
    <g>
    <path fill="#00448D" d="M125.629,23.552h-0.438l0.029-0.116c0.076-0.307-0.137-0.307-0.579-0.307c-0.527,0-0.782-0.006-0.876,0.37
        c-0.137,0.547,0.012,0.506,0.443,0.528c0.707,0.047,1.394-0.074,1.146,0.918c-0.216,0.86-0.768,0.896-1.391,0.896
        c-0.608,0-1.234-0.035-1.064-0.715l0.072-0.284h0.437l-0.06,0.238c-0.072,0.29,0.076,0.354,0.716,0.354
        c0.289,0,0.713,0.07,0.849-0.471c0.143-0.568-0.103-0.465-0.605-0.499c-0.596-0.047-1.227,0.022-1.01-0.842
        c0.221-0.884,0.688-0.9,1.445-0.9c0.49,0,1.087,0.022,0.914,0.714L125.629,23.552z"/>
    </g>
    </symbol>

    <symbol id="bridgestone"
    xmlns="http://www.w3.org/2000/svg" xmlns:xlink="http://www.w3.org/1999/xlink" x="0px" y="0px" width="130px" height="32px"
    viewBox="0 0 130 32" xml:space="preserve">
    <g>
    <g>
    <g>
        <g>
            <rect y="7.994" fill="none" width="129.99" height="15.813"/>
        </g>
        <g>
            <path fill="#231F20" d="M57.311,16.96l-1.236,4.544c-0.261,0.023-0.587,0.062-1.094,0.062c-2.426,0-2.157-0.73-1.133-4.689
                c1.064-4.115,1.684-4.866,3.198-4.866c1.457,0,1.469,0.982,1.098,2.225h3.698c0.601-2.319,0.199-4.374-4.125-4.374
                c-4.815,0-6.123,1.015-7.676,7.016c-1.445,5.588-0.97,7.07,4.235,7.07c2.468,0,3.502-0.182,5.005-0.455l1.741-6.532H57.311z"/>
            <path fill="#231F20" d="M66.132,21.441c-0.482,0-0.651-0.146-0.56-0.536l0.839-3.286h4.948l0.558-2.157h-4.949l0.562-2.191
                c0.147-0.573,0.555-1.06,1.351-1.06h3.963l0.558-2.158h-5.757c-2.388,0-3.106,0.427-4.035,4.02L61.9,20.645
                c-0.525,2.205,0.13,3.165,1.932,3.165H68.8c0.979,0,1.608-0.52,1.912-1.317l0.407-1.051H66.132z"/>
            <path fill="#231F20" d="M122.729,21.441c-0.481,0-0.651-0.146-0.56-0.536l0.839-3.286h4.948l0.559-2.157h-4.949l0.562-2.191
                c0.147-0.573,0.555-1.06,1.352-1.06h3.961L130,10.054h-5.757c-2.39,0-3.106,0.427-4.036,4.02l-1.708,6.571
                c-0.525,2.205,0.13,3.165,1.931,3.165h4.97c0.979,0,1.606-0.52,1.91-1.317l0.408-1.051H122.729z"/>
            <path fill="#231F20" d="M44.41,10.054h-4.952l-3.45,13.343c-0.06,0.229,0.074,0.413,0.298,0.413h4.411
                c5.541,0,6.475-1.06,7.994-6.937C50.032,11.766,49.218,10.054,44.41,10.054z M41.236,21.46h-1.016l2.392-9.246
                c0.307-0.001,0.422-0.013,1.185-0.013c2.146,0,2.145,0.71,1.119,4.671C43.881,20.882,43.279,21.46,41.236,21.46z"/>
            <path fill="#231F20" d="M113.698,10.027c-2.854,0-4.179,0.062-4.959,0.026l-3.451,13.343c-0.06,0.229,0.073,0.413,0.297,0.413
                h3.31l2.999-11.595c0.306-0.001,0.77-0.027,1.24-0.027c1.607,0,1.819,0.572,1.396,2.211l-2.328,8.998
                c-0.06,0.229,0.074,0.413,0.297,0.413h3.31l2.435-9.411C119.084,11.139,117.652,10.027,113.698,10.027z"/>
            <path fill="#231F20" d="M85.034,10.054l-0.571,2.235h3.677c0.036,0,0.037,0.046,0.003,0.071
                c-0.587,0.441-0.945,1.072-1.115,1.73l-2.412,9.306c-0.059,0.229,0.075,0.413,0.298,0.413h3.553l2.985-11.521h1.821
                c1.021,0,1.643-0.428,1.988-1.32l0.348-0.915H85.034z"/>
            <path fill="#231F20" d="M33.508,23.81l3.451-13.342c0.06-0.229-0.074-0.414-0.298-0.414h-3.498l-3.451,13.343
                c-0.06,0.229,0.074,0.413,0.297,0.413H33.508z"/>
            <path fill="#231F20" d="M101.295,9.864c-4.165,0-5.973,0.741-7.609,7.069C92.269,22.414,93.405,24,97.64,24
                c4.31,0,6.012-0.886,7.609-7.067C106.406,12.458,106.171,9.864,101.295,9.864z M98.237,21.689c-1.588,0-1.824-0.579-0.716-4.867
                c0.923-3.567,1.803-4.811,3.219-4.811c1.588,0,1.763,0.853,0.739,4.811C100.466,20.743,99.465,21.689,98.237,21.689z"/>
            <path fill="#E2231A" d="M2.165,17.035l2.155-7.558c0.208-0.776,1.068-1.485,1.936-1.485h6.589c0.111,0,0.146,0.144,0.061,0.202
                c-3.427,2.345-7.559,5.824-10.554,8.938C2.273,17.215,2.134,17.148,2.165,17.035z"/>
            <path fill="#231F20" d="M7.37,21.572l2.132-7.458c0.032-0.113-0.09-0.195-0.181-0.117c-3.138,2.698-6.923,6.64-9.292,9.621
                c-0.06,0.076-0.029,0.191,0.074,0.191h9.23c3.892,0,6.022-1.206,6.794-4.087c0.629-2.347-0.601-3.947-2.563-4.36
                c-0.035-0.007-0.067-0.073,0-0.085c1.661-0.284,3.336-0.953,3.933-3.375c0.646-2.622-1.358-4.059-3.664-3.911l-3.527,12.351
                c-0.191,0.669-0.905,1.229-1.583,1.229H7.37z"/>
            <path fill="#231F20" d="M27.426,18.293c-0.124-0.41-0.257-0.709-0.452-0.953c-0.026-0.031-0.031-0.073,0.014-0.088
                c1.582-0.487,2.617-1.486,3.054-3.179c0.579-2.237-0.832-4.02-4.396-4.02h-5.295L16.9,23.396
                c-0.059,0.229,0.074,0.413,0.297,0.413h3.31l2.999-11.595c0.32-0.001,0.626-0.013,1.389-0.013c1.275,0,1.747,0.787,1.472,1.849
                c-0.362,1.4-1.447,2.186-2.736,2.186h-0.487l1.377,6.657c0.164,0.649,0.49,0.917,1.235,0.917h2.955L27.426,18.293z"/>
            <g>
                <path fill="#231F20" d="M72.465,19.149c-1.401,3.351,0.426,4.869,4.147,4.869c3.396,0,5.281-0.808,6.09-3.932
                    c0.276-1.067,0.099-2.22-0.558-2.933c-1.271-1.381-3.713-1.639-4.571-2.439c-0.438-0.408-0.434-0.977-0.307-1.467
                    c0.233-0.9,0.838-1.39,1.817-1.39c1.535,0,1.574,0.945,1.197,2.065h3.294c0.774-2.341-0.24-4.176-4.12-4.176
                    c-3.265,0-5.027,1.282-5.66,3.736c-0.174,0.673-0.11,1.772,0.293,2.46c0.896,1.536,3.271,1.727,4.586,2.64
                    c0.57,0.396,0.589,0.933,0.437,1.522c-0.296,1.146-0.871,1.692-2.017,1.692c-1.102,0-1.763-0.641-1.132-2.648H72.465z"/>
            </g>
        </g>
    </g>
    </g>
    </g>
    </symbol>

    <symbol id="capitol"
    xmlns="http://www.w3.org/2000/svg" xmlns:xlink="http://www.w3.org/1999/xlink" x="0px" y="0px" width="130px" height="32px"
    viewBox="0 0 130 32" xml:space="preserve">
    <g>
    <path fill="#231F20" stroke="#FFFFFF" d="M31.747,18.863l-1.401-4.984l-8.645,6.927h-3.617l12.131-9.611l3.101-0.001
    c3.062,0,3.225,0.056,4.086,3.119c0.567,2.014,1.865,6.493,1.865,6.493H28.336l-2.049-1.943H31.747z"/>
    <polygon fill-rule="evenodd" clip-rule="evenodd" fill="#231F20" stroke="#FFFFFF" points="85.072,13.142 81.756,20.807
    75.205,20.807 78.518,13.142 73.473,13.142 74.348,11.187 91.172,11.187 90.107,13.142 	"/>
    <polygon fill-rule="evenodd" clip-rule="evenodd" fill="#231F20" stroke="#FFFFFF" points="61.171,20.807 65.347,11.187
    71.9,11.187 67.727,20.807 	"/>
    <path fill-rule="evenodd" clip-rule="evenodd" fill="#231F20" stroke="#FFFFFF" d="M11.364,13.142
    c-1.534,0-2.394,0.299-2.905,1.296c-0.51,0.993-1.234,2.525-1.663,3.839c-0.118,0.359,0.03,0.574,0.947,0.574h9.83l-2.609,1.955
    H3.233c-3.017,0-3.608-1.092-3.041-2.842c0.441-1.361,1.048-2.725,1.77-4.106c0.996-1.905,2.574-2.672,5.259-2.672h15.26
    l-2.983,1.955H11.364z"/>
    <path fill-rule="evenodd" clip-rule="evenodd" fill="#231F20" stroke="#FFFFFF" d="M50.212,17.535l0.842-1.956h1.735
    c0.997,0,1.409-0.174,1.85-0.836c0.174-0.261,0.276-0.505,0.364-0.837c0.144-0.542,0.027-0.764-0.701-0.764H50.51l-3.315,7.665
    h-6.556l4.176-9.62h13.844c2.814,0,3.737,0.677,3.166,2.498c-0.195,0.621-0.395,1.062-0.698,1.609
    c-0.868,1.562-2.341,2.241-4.86,2.241H50.212z"/>
    <path fill-rule="evenodd" clip-rule="evenodd" fill="#231F20" stroke="#FFFFFF" d="M114.568,20.807
    c-3.242,0-5.057-0.707-4.105-2.871c0.854-1.969,2.941-6.749,2.941-6.749h6.553c0,0-1.928,4.411-2.643,6.057
    c-0.611,1.41-0.486,1.607,1.494,1.607h9.574l-1.367,1.955H114.568z"/>
    <path fill-rule="evenodd" clip-rule="evenodd" fill="#231F20" stroke="#FFFFFF" d="M108.145,18.137
    c-0.902,1.746-2.586,2.562-5.232,2.67c-3.221,0.129-6.328,0.115-9.324,0c-3.529-0.135-3.531-1.555-3.041-2.842
    c0.523-1.368,1.262-3.102,1.771-4.106c0.891-1.755,2.525-2.572,5.258-2.672c3.205-0.117,6.312-0.112,9.322,0
    c3.76,0.141,3.404,1.806,3.018,2.841C109.443,15.294,108.766,16.932,108.145,18.137z M102.363,13.142h-1.594
    c-0.898,0-1.617,0.167-1.977,0.92c-0.541,1.138-1.08,2.314-1.549,3.555c-0.387,1.023-0.328,1.15,0.846,1.234
    c0.633,0.047,1.215,0.037,1.988,0c1.033-0.049,1.307-0.363,1.736-1.234c0.535-1.085,1.057-2.242,1.541-3.555
    C103.568,13.483,103.5,13.142,102.363,13.142z"/>
    </g>
    <g>
    <path fill="#231F20" d="M129.197,19.258c0.447,0,0.803,0.363,0.803,0.818c0,0.463-0.355,0.822-0.807,0.822
    c-0.447,0-0.811-0.359-0.811-0.822c0-0.455,0.363-0.818,0.811-0.818H129.197z M129.193,19.385c-0.359,0-0.654,0.309-0.654,0.691
    c0,0.389,0.295,0.695,0.658,0.695c0.363,0.004,0.654-0.307,0.654-0.691c0-0.387-0.291-0.695-0.654-0.695H129.193z M129.041,20.553
    h-0.146v-0.912c0.076-0.012,0.15-0.023,0.258-0.023c0.139,0,0.23,0.029,0.285,0.07c0.055,0.039,0.084,0.102,0.084,0.189
    c0,0.119-0.08,0.191-0.18,0.221v0.008c0.08,0.016,0.135,0.088,0.154,0.223c0.021,0.141,0.043,0.195,0.057,0.225H129.4
    c-0.021-0.029-0.043-0.113-0.062-0.232c-0.021-0.117-0.08-0.16-0.195-0.16h-0.102V20.553z M129.041,20.047h0.105
    c0.119,0,0.221-0.043,0.221-0.156c0-0.08-0.057-0.16-0.221-0.16c-0.049,0-0.08,0.004-0.105,0.008V20.047z"/>
    </g>
    </symbol>

    <symbol id="carlisle"
	 xmlns="http://www.w3.org/2000/svg" xmlns:xlink="http://www.w3.org/1999/xlink" x="0px" y="0px" width="130px" height="32px"
	 viewBox="0 0 130 32" xml:space="preserve">
<path fill="#003594" d="M25.992,5.83L13.653,5.829c0,0-8.763-0.668-10.654,5.076l-2.696,8.224c0,0-2.582,7.51,7.324,7.51
	l18.559,0.002l6.562-4.082l-1.335,4.082l91.97,0.004L130,5.83L30.503,5.832l-5.744,3.852L25.992,5.83z"/>
<polygon fill="#FFFFFF" points="119.742,22.57 107.701,22.572 111.756,9.742 123.818,9.737 122.971,12.438 115.338,12.436
	114.658,14.557 122.303,14.546 121.398,17.371 113.779,17.367 112.994,19.877 120.605,19.871 "/>
<polygon fill="#FFFFFF" points="105.494,22.566 94.656,22.566 98.832,9.736 103.543,9.738 100.301,19.793 106.414,19.789 "/>
<polygon fill="#FFFFFF" points="77.85,9.742 73.721,22.562 69.09,22.574 73.172,9.742 "/>
<polygon fill="#FFFFFF" points="65.18,9.742 62.019,19.75 68.141,19.744 67.229,22.572 56.419,22.564 60.553,9.742 "/>
<path fill="#FFFFFF" d="M34.31,17.412l-5.516-0.002l7.019-4.712L34.31,17.412z M12.384,9.678c-2.757-0.001-3.812,0.61-4.567,2.429
	l-2.543,7.945c-0.446,1.387,0.877,2.51,2.956,2.51L21.1,22.568l3.287-2.207l9.062,0.006l-0.701,2.191l4.649,0.008l4.149-12.824
	h-6.478l-14.787,9.943l-10.123,0.002l2.383-7.342l8.237-0.006l3.982-2.663L12.384,9.678z"/>
<path fill="#FFFFFF" d="M85.5,12.554l9.912,0.001l0.965-2.813L85.818,9.736l-0.682,0.01c-0.291,0-0.586,0.036-0.873,0.1
	c-1.869,0.371-4.189,1.969-4.775,3.878c-0.637,2.079,0.285,3.774,1.84,3.915h7.484c1.203,0.012,1.309,0.607,0.957,1.172
	c-0.354,0.566-0.846,0.896-2.271,0.895h-5.125h-5.725l-0.92,2.861h12.773c1.957-0.021,4.736-1.768,5.4-3.938
	c0.666-2.17-0.361-4.061-2.113-4.051l-7.57,0.007c-0.838,0-1.043-0.597-0.689-1.164C83.883,12.857,84.311,12.568,85.5,12.554z"/>
<path fill="#FFFFFF" d="M56.305,13.74c0.664-2.192-0.284-4.007-2.035-3.998H43.611l-4.148,12.824h4.914l2.039-6.833l1.047-3.257
	h2.826c1.699,0,2.291,0.88,1.753,1.924c-0.577,1.121-1.58,1.269-2.8,1.333h-2.826l3.86,6.833l4.889-0.002l-2.725-4.846l-0.129-0.234
	C54.001,16.903,55.79,15.44,56.305,13.74z"/>
<g>
	<path fill="#FFFFFF" d="M119.586,23.92c0-0.598,0.486-1.088,1.092-1.088c0.598,0,1.088,0.49,1.088,1.088
		c0,0.602-0.49,1.092-1.088,1.092C120.072,25.012,119.586,24.521,119.586,23.92z M121.561,23.92c0-0.49-0.395-0.883-0.883-0.883
		c-0.494,0-0.887,0.393-0.887,0.883c0,0.492,0.393,0.887,0.887,0.887C121.166,24.807,121.561,24.412,121.561,23.92z M121.219,24.512
		h-0.268l-0.264-0.494h-0.23v0.494h-0.23V23.34h0.57c0.1,0,0.23,0.002,0.318,0.053c0.105,0.068,0.137,0.184,0.137,0.305
		c0,0.217-0.111,0.305-0.318,0.32L121.219,24.512z M120.803,23.84c0.131,0.004,0.223-0.027,0.223-0.176
		c0-0.156-0.17-0.156-0.283-0.156h-0.285v0.332H120.803z"/>
</g>
</symbol>


</svg>

