<svg xmlns="http://www.w3.org/2000/svg">
	<symbol id="worldview6" viewBox="0 0 100 100">
		<title>World View 6</title>
		<g>
			<polygon fill="#8BD2DA" points="66.157,41.943 43.423,34.255 40.238,30.521 14.604,32.927 5.877,30.329 1.625,47.188 3.063,62.15
					10.2,62.15 46.352,76.282 66.831,78.116 70.19,74.09 73.154,74.955 76.446,70.955 78.919,72.258 83.386,66.692 85.573,67.144
					90.356,59.984 		"/>
			<polygon fill="#3DC0CB" points="56.423,60.406 76.448,70.953 73.154,74.955 51.717,68.701 		"/>
			<polygon fill="#71CBD3" points="56.423,60.406 51.764,68.611 46.352,76.282 10.2,62.15 3.375,62.15 1.625,47.188 11.276,53.617
					"/>
			<polygon fill="#71CBD3" points="56.423,60.406 78.919,72.258 83.867,66.093 61.053,52.034 		"/>
			<polygon fill="#00B0C1" points="46.352,76.282 66.83,78.116 70.232,74.04 51.717,68.701 		"/>
			<polygon fill="#117A91" points="97.5,58.5 89.225,58.196 84.446,64.619 52.753,36.234 49.551,23.33 85.052,32.773 94.742,31.758
					98.167,43.583 		"/>
			<polygon fill="#117A91" points="85.052,32.773 49.551,23.33 49.583,23.456 49.55,23.326 34.087,29.203 22.059,32.991
					24.475,38.921 39.234,40.185 52.753,36.233 52.753,36.234 		"/>
			<polygon fill="#0A6D88"
					 points="98.167,43.583 97.5,58.5 89.225,58.196 84.446,64.619 68.696,54.543 86.898,44.023 		"/>
			<polygon fill="#0A9CAE" points="34.087,29.203 22.059,32.991 24.475,38.921 39.234,40.185 		"/>
			<polygon fill="#117A91" points="49.55,70.278 42.646,67.552 43.272,66.1 35.028,62.743 35.027,62.745 35.433,61.641
					25.823,58.197 25.168,59.877 15.89,56.61 12.43,65.94 20.923,70.755 20.337,72.258 29.822,76.907 30.029,76.343 37.819,78.767
					38.277,77.701 45.258,79.139 		"/>
			<polygon fill="#004F72" points="42.646,67.552 49.55,70.278 45.258,79.139 38.277,77.702 		"/>
			<polygon fill="#117A91" points="35.028,62.743 43.272,66.1 37.819,78.767 29.836,76.282 		"/>
			<polygon fill="#0A9CAE" points="25.823,58.197 20.337,72.258 29.822,76.907 35.433,61.641 		"/>
			<polygon fill="#00B0C1" points="12.43,65.94 20.923,70.755 25.168,59.877 15.89,56.61 		"/>
			<polygon fill="#A0DAE0" points="66.157,41.943 90.356,59.984 85.573,67.144 61.053,52.034 		"/>
			<polygon fill="#8BD2DA"
					 points="61.053,52.034 39.234,47.615 43.423,36.013 52.758,36.232 66.157,41.943 		"/>
			<polygon fill="#128B9F" points="34.087,29.203 49.55,23.326 52.758,36.232 39.234,40.185 		"/>
		</g>
		<path fill="#00A7BB" d="M50,100C22.43,100,0,77.57,0,50S22.43,0,50,0s50,22.43,50,50S77.57,100,50,100z M50,3.846
				C24.551,3.846,3.846,24.551,3.846,50c0,25.45,20.705,46.154,46.154,46.154S96.154,75.45,96.154,50
				C96.154,24.551,75.449,3.846,50,3.846z"/>
	</symbol>

	<symbol id="worldview5" viewBox="0 0 100 100">
		<title>World View 5</title>

		<path fill="#00A7BB" d="M50,100C22.43,100,0,77.57,0,50S22.43,0,50,0s50,22.43,50,50S77.57,100,50,100z M50,3.846
				C24.551,3.846,3.846,24.551,3.846,50S24.551,96.154,50,96.154S96.154,75.449,96.154,50S75.449,3.846,50,3.846z"/>
		<g>
			<g>
				<path fill="#0E93A5" d="M81.473,44.568c-0.268-1.322-0.631-3.089-1.07-4.361c-0.664-1.92-1.047-2.98-2.267-5.31
						c-0.337-0.644-0.829-1.48-1.232-2.088c-0.188-0.287-0.41-0.605-0.641-0.925c-0.221-0.354-0.476-0.704-0.76-1.051
						c-0.198-0.268-0.393-0.529-0.568-0.763c-0.539-0.72-1.318-1.546-2.009-2.26c-0.076-0.083-0.152-0.162-0.228-0.238
						c-0.083-0.086-0.172-0.175-0.248-0.258c-0.046-0.043-0.099-0.089-0.149-0.135c-0.003-0.003-0.007-0.007-0.01-0.01
						c-0.046-0.046-0.096-0.093-0.145-0.139h-0.003c-0.066-0.063-0.129-0.122-0.195-0.185l-0.056-0.056
						c-0.36-0.344-0.743-0.707-1.077-0.981c-0.846-0.697-1.989-1.612-2.901-2.22c-1.272-0.852-3.255-2.065-5.482-2.984
						c-0.515-0.215-1.437-0.591-2.68-0.991c-0.053-0.016-0.102-0.036-0.159-0.053c-0.915-0.287-1.992-0.585-3.225-0.839
						c-0.334-0.066-0.651-0.126-0.965-0.178c-0.102-0.017-0.205-0.036-0.311-0.053c-0.069-0.01-0.135-0.02-0.205-0.03
						c-0.159-0.023-0.314-0.046-0.476-0.069c-0.139-0.02-0.278-0.036-0.42-0.056c-0.02,0-0.04-0.003-0.059-0.007
						c-1.216-0.152-2.234-0.208-2.994-0.231h-0.01c-0.007-0.003-0.013-0.003-0.02-0.003c-0.294-0.007-0.558-0.013-0.77-0.017
						c-0.843-0.013-2.379,0.017-4.338,0.281c-0.033,0.003-0.069,0.01-0.102,0.013c-0.307,0.043-0.624,0.093-0.952,0.149
						c-0.056,0.01-0.112,0.02-0.169,0.03c-0.04,0.007-0.076,0.013-0.116,0.02c-0.119,0.02-0.235,0.04-0.354,0.063
						c-0.079,0.013-0.152,0.023-0.235,0.04c-0.482,0.096-0.938,0.198-1.345,0.294c-0.003,0.003-0.003,0.003-0.007,0.003
						c-0.776,0.188-1.351,0.357-1.503,0.4c-1.371,0.41-1.665,0.525-3.086,1.08c-1.619,0.631-3.744,1.778-5.002,2.581
						c-0.644,0.41-1.226,0.816-1.758,1.203c-0.086,0.063-0.168,0.126-0.248,0.185c-1.229,0.915-2.131,1.712-2.637,2.187
						c-0.975,0.922-2.214,2.224-3.06,3.264c-0.43,0.529-0.915,1.156-1.378,1.804c-0.459,0.648-0.899,1.308-1.229,1.903
						c-0.354,0.628-0.846,1.451-1.156,2.098c-0.459,0.945-1.021,2.227-1.404,3.205c-0.539,1.391-1.037,3.331-1.365,4.784
						c-0.149,0.651-0.268,1.411-0.36,2.184c-0.01,0.059-0.017,0.122-0.023,0.182c-0.007,0.05-0.01,0.099-0.017,0.149
						c-0.099,0.889-0.168,1.778-0.211,2.541c-0.026,0.529-0.033,1.133-0.02,1.748c0.013,0.843,0.063,1.708,0.126,2.432
						c0.089,1.001,0.241,2.336,0.476,3.314c0.175,0.734,0.373,1.725,0.588,2.452c0.281,0.955,0.704,2.217,1.067,3.146
						c0.532,1.368,1.398,3.139,2.161,4.391c0.522,0.859,1.266,1.973,1.85,2.785c0.413,0.575,1.034,1.292,1.477,1.844
						c0.463,0.575,1.14,1.285,2.012,2.111c0.096,0.096,0.195,0.185,0.297,0.281c0.327,0.311,0.684,0.634,1.064,0.971
						c0.819,0.73,1.996,1.606,2.901,2.22c3.34,2.28,6.473,3.426,8.049,3.942c0.05,0.016,0.099,0.033,0.149,0.05
						c0.026,0.01,0.05,0.016,0.076,0.023c0.168,0.053,0.32,0.102,0.439,0.139c1.18,0.367,2.478,0.648,3.34,0.81
						c0.003,0.003,0.007,0.003,0.01,0.003c0.023,0.003,0.046,0.01,0.069,0.013c0.04,0.007,0.076,0.013,0.112,0.02
						c0.01,0.003,0.02,0.003,0.03,0.007c0.046,0.01,0.089,0.016,0.132,0.023c0.017,0.003,0.033,0.007,0.053,0.01
						c0.026,0.007,0.053,0.01,0.076,0.013c0.04,0.007,0.083,0.013,0.126,0.023c0.04,0.007,0.076,0.013,0.109,0.016
						c0.013,0.003,0.026,0.007,0.04,0.007c0.026,0.003,0.053,0.01,0.079,0.013c0,0,0,0,0.003,0h0.003
						c0.099,0.017,0.195,0.03,0.294,0.043c0.241,0.036,0.472,0.066,0.691,0.096c0.043,0.007,0.086,0.01,0.129,0.016
						c1.041,0.132,1.893,0.198,2.977,0.228h0.013c0.245,0.007,0.499,0.013,0.77,0.016c0.92,0.013,2.87-0.03,5.288-0.424
						c0.092-0.015,0.184-0.031,0.276-0.047c1.111-0.191,2.305-0.449,3.555-0.821c3.136-0.935,6.023-2.273,8.577-3.978
						c0.423-0.281,0.816-0.558,1.199-0.836c0.116-0.086,0.235-0.172,0.347-0.254c3.099-2.319,4.857-4.447,5.67-5.432
						c0.423-0.512,0.909-1.15,1.417-1.877c0-0.003,0.003-0.01,0.007-0.013c0.073-0.099,0.139-0.202,0.205-0.304
						c1.041-1.523,2.171-3.463,3.142-5.812c1.156-2.792,1.718-5.356,1.982-6.988c0.089-0.548,0.145-0.988,0.182-1.302
						c0.135-1.239,0.261-2.904,0.231-4.15C81.896,48.146,81.78,46.078,81.473,44.568z"/>
				<g>
					<path fill="#0A6D88" d="M76.56,58.396c-0.05-5.135-1.427-10.362-3.773-15.229c2.623-1.926,4.196-4.15,4.56-6.436
							c0.287,0.43,0.562,0.869,0.823,1.312c1.692,2.871,2.851,6.004,3.367,9.294c0.182,1.17,0.291,2.353,0.304,3.555
							C81.433,53.562,79.613,56.149,76.56,58.396z"/>
					<path fill="#0A9CAE" d="M77.412,35.28c-0.076-1.137-0.449-2.28-1.15-3.397c0.231,0.32,0.453,0.638,0.641,0.925
							c0.403,0.608,0.895,1.444,1.232,2.088c1.219,2.329,1.602,3.39,2.267,5.31c0.439,1.272,0.803,3.04,1.071,4.361
							c0.307,1.51,0.423,3.578,0.463,5.118c0.03,1.246-0.096,2.911-0.231,4.15c-0.036,0.314-0.093,0.753-0.182,1.302h-0.007
							c0.228-1.365,0.337-2.769,0.324-4.199v-0.046c-0.013-1.203-0.122-2.386-0.304-3.555c-0.515-3.291-1.675-6.423-3.367-9.294
							c-0.261-0.443-0.535-0.882-0.823-1.312C77.422,36.248,77.442,35.763,77.412,35.28z"/>
					<path fill="#117A91" d="M65.96,26.445c4.679,2.561,8.607,6.106,11.386,10.286c-0.363,2.286-1.936,4.51-4.56,6.436
							c-1.391-2.888-3.122-5.647-5.131-8.178c-1.378-1.738-2.888-3.364-4.5-4.857c1.533-1.127,2.455-2.425,2.666-3.76
							C65.868,26.396,65.914,26.419,65.96,26.445z"/>
					<path fill="#8BD2DA"
						  d="M75.502,30.833c0.284,0.347,0.539,0.697,0.76,1.051C76.011,31.53,75.753,31.177,75.502,30.833z"/>
					<path fill="#0A4065" d="M73.051,71.338c0.558-0.836,1.057-1.725,1.49-2.676c1.143-2.508,1.834-5.405,1.986-8.62
							c0.023-0.539,0.04-1.084,0.033-1.639c0-0.003,0-0.003,0-0.007c3.053-2.247,4.874-4.834,5.28-7.504v0.046
							c0.013,1.431-0.096,2.835-0.324,4.199h0.007c-0.264,1.632-0.826,4.196-1.982,6.988c-0.971,2.349-2.101,4.289-3.142,5.812
							c-0.066,0.102-0.132,0.205-0.205,0.304c-0.003,0.003-0.007,0.01-0.007,0.013C75.416,69.339,74.362,70.373,73.051,71.338z"/>
					<path fill="#0D183C" d="M74.769,70.132c-0.813,0.985-2.571,3.112-5.67,5.432c1.523-1.16,2.851-2.577,3.952-4.226
							c1.312-0.965,2.366-1.999,3.136-3.083C75.677,68.982,75.192,69.62,74.769,70.132z"/>
					<path fill="#8BD2DA" d="M72.697,27.572c-0.149-0.152-0.301-0.301-0.456-0.446c0.017,0.013,0.033,0.03,0.05,0.043
							c0.003,0.003,0.007,0.007,0.01,0.01c0.05,0.046,0.102,0.093,0.149,0.135C72.525,27.397,72.614,27.486,72.697,27.572z"/>
					<path fill="#8BD2DA" d="M72.291,27.169c-0.017-0.013-0.033-0.03-0.05-0.043c-0.033-0.033-0.063-0.059-0.096-0.096
							C72.195,27.076,72.244,27.122,72.291,27.169z"/>
					<path fill="#8BD2DA" d="M71.891,26.789l0.056,0.056c-0.059-0.053-0.119-0.106-0.178-0.162
							C71.808,26.716,71.851,26.752,71.891,26.789z"/>
					<path fill="#00B0C1" d="M65.765,24.886c-0.202-0.849-0.694-1.695-1.51-2.504c0.268,0.086,0.532,0.178,0.793,0.274
							c0.169,0.063,0.334,0.126,0.502,0.192c0.268,0.106,0.532,0.218,0.793,0.337c0.152,0.066,0.304,0.129,0.453,0.202
							c0.297,0.139,0.591,0.291,0.882,0.446c0.102,0.053,0.208,0.102,0.311,0.159c0.39,0.215,0.77,0.439,1.14,0.677
							c0.086,0.056,0.169,0.116,0.254,0.172c0.284,0.188,0.562,0.38,0.836,0.578c0.126,0.093,0.248,0.192,0.373,0.287
							c0.225,0.175,0.446,0.35,0.664,0.532c0.129,0.109,0.258,0.221,0.387,0.337c0.043,0.036,0.086,0.073,0.126,0.109
							c0.059,0.056,0.119,0.109,0.178,0.162c0.066,0.063,0.129,0.122,0.195,0.185h0.003c0.033,0.036,0.063,0.063,0.096,0.096
							c0.155,0.145,0.307,0.294,0.456,0.446c0.076,0.076,0.152,0.155,0.228,0.238c0.691,0.714,1.47,1.54,2.009,2.26
							c0.175,0.235,0.37,0.496,0.568,0.763c0.251,0.344,0.509,0.697,0.76,1.051c0.7,1.117,1.074,2.26,1.15,3.397
							c0.03,0.482,0.01,0.968-0.066,1.45c-2.779-4.18-6.707-7.725-11.386-10.286c-0.046-0.026-0.093-0.05-0.139-0.073
							c0.013-0.069,0.023-0.139,0.03-0.211C65.894,25.738,65.868,25.312,65.765,24.886z"/>
					<path fill="#00B0C1" d="M47.781,49.253c4.718,0.142,9.592-0.301,14.151-1.411c1.256,5.336,1.999,10.837,2.049,15.972
							c-5.283,1.289-10.93,1.801-16.395,1.639C47.536,60.319,47.612,54.735,47.781,49.253z"/>
					<path fill="#8BD2DA" d="M63.413,22.117c0.106,0.03,0.211,0.066,0.317,0.099c-0.099-0.03-0.205-0.056-0.304-0.083
							C63.423,22.127,63.416,22.123,63.413,22.117z"/>
					<path fill="#8BD2DA" d="M62.884,21.985c0.175,0.043,0.354,0.083,0.529,0.132c0.003,0.007,0.01,0.01,0.013,0.017
							C63.247,22.08,63.066,22.031,62.884,21.985z"/>
					<path fill="#004F72" d="M62.203,76.006C62.2,76.01,62.2,76.01,62.197,76.01c1.18-2.937,1.834-7.058,1.784-12.195
							c4.831-1.176,8.795-2.858,11.763-4.847c0.281-0.188,0.552-0.38,0.816-0.572c0,0.003,0,0.003,0,0.007
							c0.007,0.555-0.01,1.1-0.033,1.639c-0.152,3.215-0.843,6.113-1.986,8.62c-0.433,0.952-0.932,1.84-1.49,2.676
							c-1.797,1.318-4.084,2.498-6.813,3.469c-0.572,0.205-1.163,0.4-1.774,0.585C63.736,75.61,62.983,75.818,62.203,76.006z"/>
					<path fill="#0A4065" d="M61.936,47.842c4.56-1.11,8.227-2.746,10.851-4.675c2.346,4.867,3.724,10.094,3.773,15.229
							c-0.264,0.192-0.535,0.383-0.816,0.572c-2.967,1.989-6.932,3.671-11.763,4.847c-0.05-5.135-0.793-10.636-2.049-15.972H61.936z"
					/>
					<path fill="#8BD2DA" d="M59.752,19.612c1.242,0.4,2.164,0.776,2.68,0.991c2.227,0.919,4.209,2.131,5.481,2.984
							c0.912,0.608,2.055,1.523,2.901,2.22c0.334,0.274,0.717,0.638,1.077,0.981c-0.04-0.036-0.083-0.073-0.122-0.106
							c-0.04-0.036-0.083-0.073-0.126-0.109c-0.129-0.116-0.258-0.228-0.387-0.337c-0.218-0.182-0.439-0.357-0.664-0.532
							c-0.126-0.096-0.248-0.195-0.373-0.287c-0.274-0.198-0.552-0.39-0.836-0.578c-0.086-0.056-0.169-0.116-0.254-0.172
							c-0.37-0.238-0.75-0.463-1.14-0.677c-0.102-0.056-0.208-0.106-0.311-0.159c-0.291-0.155-0.585-0.307-0.882-0.446
							c-0.149-0.073-0.301-0.135-0.453-0.202c-0.261-0.119-0.525-0.231-0.793-0.337c-0.169-0.066-0.334-0.129-0.502-0.192
							c-0.261-0.096-0.525-0.188-0.793-0.274c-0.003-0.003-0.007-0.007-0.01-0.013c-0.74-0.727-1.685-1.371-2.785-1.926
							C60.918,20.095,60.35,19.814,59.752,19.612z"/>
					<path fill="#8BD2DA" d="M61.46,20.442c-0.833-0.423-1.768-0.786-2.759-1.1c0.301,0.056,0.601,0.126,0.892,0.218
							c0.056,0.017,0.106,0.036,0.159,0.053C60.35,19.814,60.918,20.095,61.46,20.442z"/>
					<path fill="#0E93A5" d="M56.821,32.858c2.663-0.648,4.804-1.602,6.334-2.726c1.612,1.493,3.122,3.119,4.5,4.857
							c2.009,2.531,3.74,5.29,5.131,8.178c-2.623,1.93-6.291,3.565-10.851,4.675h-0.003c-1.256-5.339-3.02-10.51-5.115-14.984H56.821z
							"/>
					<path fill="#70CBD5" d="M56.818,32.858c2.095,4.474,3.859,9.645,5.115,14.984c-4.56,1.11-9.433,1.553-14.151,1.411
							c0.172-5.481,0.439-10.857,0.773-15.575c1.272,0.04,2.564,0.007,3.846-0.106C53.897,33.44,55.384,33.209,56.818,32.858z"/>
					<path fill="#8BD2DA" d="M58.701,19.341c-1.037-0.327-2.138-0.598-3.297-0.8c0.314,0.053,0.631,0.112,0.965,0.178
							c1.232,0.254,2.31,0.552,3.225,0.839C59.302,19.467,59.002,19.398,58.701,19.341z"/>
					<path fill="#8BD2DA" d="M50.94,18.096c0.76,0.023,1.778,0.079,2.994,0.231c-0.961-0.116-1.949-0.188-2.947-0.218
							C50.969,18.102,50.956,18.096,50.94,18.096z"/>
					<path fill="#8BD2DA" d="M50.986,18.109c-0.033-0.003-0.066-0.003-0.102-0.003c0.01-0.003,0.017-0.01,0.026-0.013
							c0.007,0,0.013,0,0.02,0.003h0.01C50.956,18.096,50.969,18.102,50.986,18.109z"/>
					<path fill="#98D7DD" d="M63.155,30.132c-1.53,1.123-3.671,2.078-6.334,2.726h-0.003c-1.434-3.06-3.02-5.789-4.702-8.022
							c-0.628-0.833-1.269-1.596-1.923-2.283c-0.152-0.162-0.304-0.324-0.459-0.476c0.469,0.145,0.935,0.307,1.401,0.479
							c0.281,0.106,0.562,0.221,0.839,0.334C56.018,24.525,59.811,27.03,63.155,30.132z"/>
					<path fill="#71CBD3" d="M56.372,22.883c3.373,0.73,6.552,1.92,9.45,3.489c-0.211,1.335-1.133,2.633-2.666,3.76
							c-3.344-3.103-7.137-5.607-11.181-7.243c-0.278-0.112-0.558-0.228-0.839-0.334c-0.466-0.172-0.932-0.334-1.401-0.479
							c0.734,0.02,1.46,0.073,2.181,0.135C53.431,22.348,54.918,22.573,56.372,22.883z"/>
					<path fill="#8BD2DA" d="M50.91,18.092c-0.01,0.003-0.017,0.01-0.026,0.013c-1.682-0.046-3.393,0.03-5.082,0.251
							c1.959-0.264,3.496-0.294,4.338-0.281C50.352,18.079,50.616,18.086,50.91,18.092z"/>
					<path fill="#B1E0E4" d="M56.038,21.228c0.198-0.003,0.393-0.01,0.591-0.01c0.327-0.003,0.651,0.007,0.971,0.017
							c0.175,0.007,0.347,0.01,0.519,0.017c0.403,0.023,0.803,0.056,1.196,0.096c0.086,0.01,0.175,0.013,0.261,0.023
							c0.479,0.053,0.952,0.122,1.417,0.202c0.135,0.023,0.268,0.053,0.403,0.079c0.33,0.063,0.658,0.129,0.981,0.205
							c0.172,0.04,0.337,0.083,0.506,0.129c0.182,0.046,0.363,0.096,0.542,0.149c0.099,0.026,0.205,0.053,0.304,0.083
							c0.175,0.053,0.347,0.106,0.519,0.162c0.003,0.003,0.007,0.003,0.007,0.003c0.816,0.81,1.308,1.655,1.51,2.504
							c0.102,0.426,0.129,0.852,0.086,1.275c-0.007,0.073-0.017,0.142-0.03,0.211c-2.898-1.569-6.076-2.759-9.45-3.489
							c-1.454-0.311-2.941-0.535-4.457-0.671c-0.72-0.063-1.447-0.116-2.181-0.135c0.539-0.132,1.071-0.245,1.602-0.347
							c0.172-0.033,0.344-0.056,0.515-0.086c0,0,0.003,0,0.007,0c0.354-0.063,0.71-0.119,1.061-0.169
							c0.202-0.026,0.4-0.05,0.598-0.069c0.324-0.04,0.648-0.073,0.968-0.099c0.205-0.017,0.41-0.03,0.611-0.04
							C55.413,21.248,55.727,21.235,56.038,21.228z"/>
					<path fill="#8BD2DA" d="M58.701,19.341c0.991,0.314,1.926,0.677,2.759,1.1c1.1,0.555,2.045,1.199,2.785,1.926
							c0.003,0.007,0.007,0.01,0.01,0.013c0,0-0.003,0-0.007-0.003c-0.172-0.056-0.344-0.109-0.519-0.162
							c-0.106-0.033-0.211-0.069-0.317-0.099c-0.175-0.05-0.354-0.089-0.529-0.132c-0.169-0.046-0.334-0.089-0.506-0.129
							c-0.324-0.076-0.651-0.142-0.981-0.205c-0.135-0.026-0.268-0.056-0.403-0.079c-0.466-0.079-0.938-0.149-1.417-0.202
							c-0.086-0.01-0.175-0.013-0.261-0.023c-0.393-0.04-0.793-0.073-1.196-0.096c-0.172-0.007-0.344-0.01-0.519-0.017
							c-0.32-0.01-0.644-0.02-0.971-0.017c-0.198,0-0.393,0.007-0.591,0.01c-0.311,0.007-0.624,0.02-0.942,0.04
							c-0.202,0.01-0.406,0.023-0.611,0.04c-0.32,0.026-0.644,0.059-0.968,0.099c-0.198,0.02-0.396,0.043-0.598,0.069
							c-0.35,0.05-0.707,0.106-1.061,0.169c-0.003,0-0.007,0-0.007,0c-0.172,0.03-0.344,0.053-0.515,0.086
							c-0.532,0.102-1.064,0.215-1.602,0.347c0.684-0.502,1.358-0.928,2.022-1.295C54.257,19.398,56.606,18.948,58.701,19.341z"/>
					<path fill="#B1E0E4" d="M52.116,24.836c1.682,2.234,3.268,4.963,4.702,8.022c-1.434,0.35-2.921,0.582-4.418,0.714
							c-1.282,0.112-2.574,0.145-3.846,0.106c0.317-4.454,0.694-8.316,1.107-11.125c0.026-0.159,0.05-0.324,0.073-0.476
							c0.155,0.152,0.307,0.314,0.459,0.476C50.847,23.24,51.488,24.003,52.116,24.836z"/>
					<path fill="#B1E0E4" d="M55.403,18.542c1.16,0.202,2.26,0.472,3.297,0.8c-2.095-0.393-4.444,0.056-6.945,1.441
							c-0.664,0.367-1.338,0.793-2.022,1.295c0.403-2.59,0.796-3.869,1.15-3.972c0.036,0,0.069,0,0.102,0.003
							c0.998,0.03,1.986,0.102,2.947,0.218c0.02,0.003,0.04,0.007,0.059,0.007c0.142,0.02,0.281,0.036,0.42,0.056
							c0.162,0.023,0.317,0.046,0.476,0.069c0.069,0.01,0.135,0.02,0.205,0.03C55.199,18.505,55.301,18.525,55.403,18.542z"/>
					<path fill="#8BD2DA" d="M49.099,22.566c0.211-0.165,0.423-0.334,0.634-0.489c-0.023,0.152-0.046,0.317-0.073,0.476
							c-0.413,2.808-0.79,6.671-1.107,11.125c-2.756-0.083-5.415-0.506-7.715-1.232C43.271,28.381,46.086,24.948,49.099,22.566z"/>
					<path fill="#0A6D88" d="M47.586,65.453c5.465,0.162,11.112-0.35,16.395-1.639c0.05,5.138-0.605,9.258-1.784,12.195
							c-4.56,1.11-9.43,1.553-14.148,1.411c-0.248-2.795-0.413-6.83-0.463-11.964C47.586,65.453,47.586,65.453,47.586,65.453z"/>
					<path fill="#8BD2DA" d="M49.013,81.894c0.033,0,0.066,0,0.099,0.003c-0.007,0-0.017,0.01-0.026,0.01h-0.013
							C49.053,81.908,49.033,81.901,49.013,81.894z"/>
					<path fill="#152C50" d="M58.975,80.632c-4.114,1.226-7.748,1.312-9.119,1.292c-0.271-0.003-0.525-0.01-0.77-0.017
							c0.01,0,0.02-0.01,0.026-0.01c2.726,0.073,5.534-0.185,8.168-0.823c0.03-0.01,0.056-0.017,0.086-0.023
							c0.122-0.026,0.241-0.059,0.357-0.093c1.034-0.301,1.973-0.958,2.789-1.959c0.598-0.734,1.13-1.652,1.589-2.739
							c0.033-0.083,0.063-0.169,0.096-0.251c0.003,0,0.003,0,0.007-0.003c0.78-0.188,1.533-0.396,2.26-0.615
							c0.611-0.185,1.203-0.38,1.774-0.585c2.729-0.971,5.016-2.151,6.813-3.469c-1.1,1.649-2.429,3.066-3.952,4.226
							c-0.112,0.083-0.231,0.169-0.347,0.254c-0.383,0.278-0.776,0.555-1.199,0.836C64.999,78.359,62.111,79.697,58.975,80.632z"/>
					<path fill="#00B6C2" d="M49.099,22.566c-3.013,2.382-5.828,5.815-8.26,9.879c-1.764-0.558-3.311-1.289-4.523-2.177
							c-0.367-0.271-0.714-0.548-1.014-0.846c0.42-0.347,0.849-0.681,1.285-1.011c3.403-2.557,7.206-4.563,11.25-5.805
							c0.628-0.195,1.259-0.373,1.897-0.529C49.522,22.232,49.311,22.401,49.099,22.566z"/>
					<path fill="#117A91" d="M34.836,75.309c3.938,1.242,8.498,1.969,13.213,2.111c0.03,0.327,0.059,0.644,0.093,0.938
							c0.033,0.307,0.066,0.591,0.102,0.862c0.218,1.655,0.479,2.567,0.77,2.673c-0.988-0.03-1.966-0.102-2.918-0.215
							c-0.043-0.007-0.086-0.01-0.129-0.017c-0.218-0.03-0.449-0.059-0.691-0.096c-0.099-0.013-0.195-0.026-0.294-0.043h-0.003
							c-0.003,0-0.003,0-0.003,0c-0.026-0.003-0.053-0.01-0.079-0.013c-0.013,0-0.026-0.003-0.04-0.007
							c-0.033-0.003-0.069-0.01-0.109-0.017c-0.043-0.01-0.086-0.017-0.126-0.023c-0.023-0.003-0.05-0.007-0.076-0.013
							c-0.02-0.003-0.036-0.007-0.053-0.01c-0.043-0.007-0.086-0.013-0.132-0.023c-0.01-0.003-0.02-0.003-0.03-0.007
							c-0.036-0.007-0.073-0.013-0.112-0.02c-0.023-0.003-0.046-0.01-0.069-0.013c-0.003,0-0.007,0-0.01-0.003
							c-0.862-0.162-2.161-0.443-3.34-0.81c-0.119-0.036-0.271-0.086-0.439-0.139c-0.026-0.007-0.05-0.013-0.076-0.023
							c-0.05-0.017-0.099-0.033-0.149-0.05c-0.555-0.198-1.087-0.469-1.593-0.793c-0.7-0.443-1.355-1.004-1.956-1.678
							C35.939,77.156,35.354,76.294,34.836,75.309z"/>
					<path fill="#004F72" d="M48.141,78.359c-0.033-0.294-0.063-0.611-0.093-0.938c4.718,0.142,9.588-0.301,14.148-1.411
							c-0.033,0.083-0.063,0.169-0.096,0.251c-0.459,1.087-0.991,2.006-1.589,2.739c-0.816,1.001-1.754,1.659-2.789,1.959
							c-0.119,0.03-0.235,0.063-0.357,0.093c-0.03,0.007-0.056,0.013-0.086,0.023c-2.633,0.638-5.442,0.895-8.168,0.823
							c-0.033-0.003-0.066-0.003-0.099-0.003c-0.291-0.106-0.552-1.018-0.77-2.673C48.207,78.95,48.174,78.666,48.141,78.359z"/>
					<path fill="#8BD2DA" d="M49.073,81.908c-1.084-0.03-1.936-0.096-2.977-0.228c0.952,0.112,1.93,0.185,2.918,0.215
							C49.033,81.901,49.053,81.908,49.073,81.908z"/>
					<path fill="#0E93A5" d="M47.586,65.457c0.05,5.135,0.215,9.169,0.463,11.964c-4.715-0.142-9.275-0.869-13.213-2.111
							c-1.579-3.01-2.514-7.17-2.564-12.301c0-0.003,0-0.003,0-0.007c4.563,1.441,9.846,2.286,15.314,2.452
							C47.586,65.453,47.586,65.453,47.586,65.457z"/>
					<path fill="#8BD2DA" d="M47.837,22.606c-4.044,1.242-7.847,3.248-11.25,5.805c-0.436,0.33-0.866,0.664-1.285,1.011
							c-0.003-0.003-0.003-0.003-0.007-0.007c-1.295-1.279-1.788-2.653-1.579-3.988c0.598-0.291,1.209-0.565,1.83-0.823
							c0.767-0.314,1.55-0.605,2.353-0.862c3.654-1.189,7.646-1.791,11.835-1.665C49.096,22.232,48.465,22.411,47.837,22.606z"/>
					<path fill="#8BD2DA"
						  d="M45.276,81.567c0.241,0.036,0.472,0.066,0.691,0.096C45.736,81.637,45.504,81.604,45.276,81.567z"/>
					<path fill="#8BD2DA"
						  d="M45.699,18.37c-0.307,0.043-0.624,0.093-0.952,0.149C45.062,18.462,45.379,18.413,45.699,18.37z"/>
					<path fill="#A0DAE0" d="M40.839,32.445c2.3,0.727,4.959,1.15,7.715,1.232c-0.334,4.718-0.601,10.094-0.773,15.575
							c-4.718-0.139-9.275-0.869-13.213-2.111C36.068,41.872,38.235,36.8,40.839,32.445z"/>
					<path fill="#B1E0E4" d="M42.63,18.951c2.068-0.426,4.497,0.548,7.104,3.126c-3.638-1.153-7.1-1.474-10.246-1.077
							c-1.08,0.139-2.121,0.367-3.122,0.667c1.447-1.067,3.44-1.979,5.904-2.623C42.392,19.011,42.508,18.981,42.63,18.951z"/>
					<path fill="#86D1DA" d="M44.748,18.519c0.327-0.056,0.644-0.106,0.952-0.149c0.033-0.003,0.069-0.01,0.102-0.013
							c1.688-0.221,3.4-0.297,5.082-0.251c-0.354,0.102-0.747,1.381-1.15,3.972c-2.607-2.577-5.035-3.552-7.104-3.126
							c0.03-0.01,0.059-0.017,0.089-0.023c0.459-0.112,0.922-0.211,1.391-0.297c0.119-0.023,0.235-0.043,0.354-0.063
							c0.04-0.007,0.076-0.013,0.116-0.02C44.635,18.538,44.692,18.529,44.748,18.519z"/>
					<path fill="#8BD2DA" d="M42.531,18.965c0.406-0.096,0.862-0.198,1.345-0.294c0.083-0.017,0.155-0.026,0.235-0.04
							c-0.469,0.086-0.932,0.185-1.391,0.297c-0.03,0.007-0.059,0.013-0.089,0.023C42.597,18.958,42.564,18.958,42.531,18.965z"/>
					<path fill="#A0DAE0" d="M39.488,21c3.145-0.396,6.608-0.076,10.246,1.077c-4.19-0.126-8.181,0.476-11.835,1.665
							c-0.803,0.258-1.586,0.548-2.353,0.862c-0.621,0.258-1.232,0.532-1.83,0.823c0.013-0.079,0.026-0.159,0.043-0.235
							c0.274-1.252,1.17-2.465,2.607-3.525C37.366,21.367,38.407,21.139,39.488,21z"/>
					<path fill="#8BD2DA" d="M42.524,18.968c0.003,0,0.003,0,0.007-0.003c0.033-0.007,0.066-0.007,0.099-0.013
							c-0.122,0.03-0.238,0.059-0.36,0.093C42.356,19.018,42.438,18.988,42.524,18.968z"/>
					<path fill="#61C7D1" d="M47.781,49.253c-0.169,5.481-0.245,11.065-0.195,16.2c-5.468-0.165-10.752-1.011-15.314-2.452
							c-0.05-5.135,0.793-10.593,2.296-15.86C38.506,48.384,43.063,49.114,47.781,49.253z"/>
					<path fill="#70CBD5" d="M36.316,30.268c1.213,0.889,2.759,1.619,4.523,2.177c-2.604,4.355-4.771,9.427-6.271,14.697
							c-3.938-1.242-7.252-2.997-9.476-5.187c0.377-0.727,0.776-1.444,1.199-2.151c2.353-3.899,5.425-7.451,9.01-10.381
							C35.602,29.719,35.949,29.997,36.316,30.268z"/>
					<path fill="#8BD2DA" d="M36.365,21.667c-1.897,0.575-3.641,1.437-5.191,2.564c0.532-0.387,1.113-0.793,1.758-1.203
							c1.259-0.803,3.383-1.949,5.002-2.58c1.421-0.555,1.715-0.671,3.086-1.08c0.152-0.043,0.727-0.211,1.503-0.4
							c-0.086,0.02-0.169,0.05-0.254,0.076C39.805,19.688,37.813,20.6,36.365,21.667z"/>
					<path fill="#0A9CAE" d="M21.295,56.988c2.574,2.544,6.417,4.573,10.976,6.013c0,0.003,0,0.003,0,0.007
							c0.05,5.131,0.985,9.291,2.564,12.301c-3.922-1.239-7.229-2.984-9.453-5.168C22.835,66.606,21.345,62.136,21.295,56.988z"/>
					<path fill="#132348" d="M25.383,70.142c2.224,2.184,5.531,3.929,9.453,5.168c0.519,0.985,1.104,1.847,1.751,2.574
							c0.601,0.674,1.256,1.236,1.956,1.678c0.506,0.324,1.037,0.595,1.593,0.793c-1.576-0.515-4.708-1.662-8.049-3.942
							c-0.905-0.615-2.082-1.49-2.901-2.22c-0.38-0.337-0.737-0.661-1.064-0.971c-0.102-0.096-0.202-0.185-0.297-0.281
							C26.929,72.091,26.113,71.153,25.383,70.142z"/>
					<path fill="#8BD2DA" d="M25.092,41.955c2.224,2.191,5.538,3.945,9.476,5.187c-1.503,5.267-2.346,10.725-2.296,15.86
							c-4.56-1.441-8.402-3.469-10.976-6.013C21.246,51.857,22.637,46.696,25.092,41.955z"/>
					<path fill="#B1E0E4" d="M26.291,39.804c-0.423,0.707-0.823,1.424-1.199,2.151c0-0.003-0.003-0.003-0.007-0.007
							c-0.304-0.301-0.575-0.608-0.829-0.915c-0.294-0.354-0.558-0.714-0.783-1.074c-0.998-1.596-1.341-3.238-1.09-4.847
							c0.902-1.341,1.93-2.604,3.076-3.773c2.319-2.376,5.115-4.381,8.257-5.911c-0.208,1.335,0.284,2.709,1.579,3.988
							c0.003,0.003,0.003,0.003,0.007,0.007C31.716,32.353,28.644,35.905,26.291,39.804z"/>
					<path fill="#61C7D1" d="M25.085,41.948c0.003,0.003,0.007,0.003,0.007,0.007c-2.455,4.741-3.846,9.902-3.796,15.034
							c-2.125-2.098-3.162-4.322-3.225-6.522h-0.003c-0.013-0.615-0.007-1.219,0.02-1.748c0.043-0.763,0.112-1.652,0.211-2.541
							c0.007-0.05,0.01-0.099,0.017-0.149c0.007-0.059,0.013-0.122,0.023-0.182c0.479-3.909,1.897-7.54,4.044-10.735
							c-0.251,1.609,0.093,3.251,1.09,4.847c0.225,0.36,0.489,0.72,0.783,1.074C24.51,41.34,24.781,41.647,25.085,41.948z"/>
					<path fill="#4AC2CC" d="M22.382,35.112c0.185-1.17,0.687-2.326,1.484-3.43l-0.013-0.01c0.463-0.648,0.948-1.275,1.378-1.804
							c0.846-1.041,2.085-2.343,3.06-3.264c0.506-0.476,1.408-1.272,2.637-2.187c0.079-0.059,0.162-0.122,0.248-0.185
							c1.55-1.127,3.294-1.989,5.191-2.564c-1.437,1.061-2.333,2.273-2.607,3.525c-0.017,0.076-0.03,0.155-0.043,0.235
							c-3.142,1.53-5.937,3.535-8.257,5.911C24.312,32.508,23.284,33.77,22.382,35.112z"/>
					<path fill="#8BD2DA" d="M22.382,35.112c-2.148,3.195-3.565,6.826-4.044,10.735c0.093-0.773,0.211-1.533,0.36-2.184
							c0.327-1.454,0.826-3.393,1.365-4.784c0.383-0.978,0.945-2.26,1.404-3.205c0.311-0.648,0.803-1.47,1.156-2.098
							c0.33-0.595,0.77-1.256,1.229-1.903l0.013,0.01C23.07,32.786,22.567,33.942,22.382,35.112z"/>
					<path fill="#86D1DA" d="M25.383,70.142c0.73,1.011,1.546,1.949,2.442,2.799c-0.872-0.826-1.55-1.536-2.012-2.111
							c-0.443-0.552-1.064-1.269-1.477-1.844c-0.585-0.813-1.328-1.926-1.85-2.785c-0.763-1.252-1.629-3.023-2.161-4.391
							c-0.363-0.928-0.786-2.191-1.067-3.145c-0.215-0.727-0.413-1.718-0.588-2.452c-0.235-0.978-0.387-2.313-0.476-3.314
							c-0.063-0.724-0.112-1.589-0.126-2.432h0.003c0.063,2.201,1.1,4.424,3.225,6.522C21.345,62.136,22.835,66.606,25.383,70.142z"/>
				</g>
			</g>
			<g>
				<g>
					<polygon fill="#117A91" points="46.072,47.058 43.909,41.228 37.727,40.249 31.544,39.269 33.706,45.1 35.868,50.93
							42.051,51.909 48.234,52.889 				"/>
					<polygon fill="#0A4065" points="32.676,37.09 27.626,36.29 24.805,37.764 22.661,51.301 24.889,53.574 29.938,54.374
							32.76,52.9 34.904,39.363 				"/>
					<polygon fill="#0A6D88" points="33.932,32.482 28.233,31.579 23.887,32.955 23.436,35.803 27.144,38.456 32.843,39.359
							37.19,37.982 37.641,35.133 				"/>
					<polygon fill="#71CBD3" points="24.528,43.646 22.365,37.816 16.183,36.837 10,35.857 12.162,41.688 14.324,47.518
							20.507,48.497 26.69,49.477 				"/>
				</g>
				<g>
					<g>
						<polygon fill="#004F72"
								 points="46.066,47.058 48.228,52.889 42.046,51.909 39.883,46.079 					"/>
						<polygon fill="#0E93A5"
								 points="43.904,41.228 46.066,47.058 39.883,46.079 37.721,40.249 					"/>
						<polygon fill="#117A91"
								 points="39.883,46.079 42.046,51.909 35.863,50.93 33.701,45.1 					"/>
						<polygon fill="#00B0C1"
								 points="37.721,40.249 39.883,46.079 33.701,45.1 31.539,39.27 					"/>
					</g>
					<g>
						<g>
							<polygon fill="#143459"
									 points="27.028,40.038 24.8,37.764 27.621,36.29 32.671,37.09 34.899,39.363 32.077,40.837 						"/>
							<polygon fill="#132348"
									 points="29.933,54.374 32.755,52.9 34.899,39.363 32.077,40.837 						"/>

							<rect x="25.924" y="40.353"
								  transform="matrix(-0.9877 -0.1564 0.1564 -0.9877 49.2257 98.2858)" fill="#0A4065"
								  width="5.112" height="13.706"/>
							<polygon fill="#117A91"
									 points="24.884,53.575 22.656,51.301 24.8,37.764 27.028,40.038 						"/>
						</g>
						<g>
							<polygon fill="#143459"
									 points="37.635,35.133 37.184,37.982 30.173,37.74 30.173,37.739 						"/>
							<polygon fill="#004F72"
									 points="37.635,35.133 30.173,37.739 33.927,32.482 						"/>
							<polygon fill="#0A6D88"
									 points="33.927,32.482 30.173,37.739 28.228,31.579 						"/>
							<polygon fill="#117A91"
									 points="30.173,37.739 23.881,32.955 28.228,31.579 						"/>
							<polygon fill="#0A9CAE"
									 points="30.173,37.739 30.173,37.74 23.43,35.803 23.881,32.955 						"/>
							<polygon fill="#117A91"
									 points="30.173,37.74 27.139,38.456 23.43,35.803 						"/>
							<polygon fill="#0A6D88"
									 points="32.838,39.359 27.139,38.456 30.173,37.74 						"/>
							<polygon fill="#004F72"
									 points="37.184,37.982 32.838,39.359 30.173,37.74 						"/>
							<g>
								<polygon fill="#0A9CAE"
										 points="30.723,37.567 30.173,37.739 29.704,37.406 31.203,30.186 31.528,30.238 							"/>
								<polygon fill="#0A6D88" points="31.093,30.656 30.859,30.334 30.922,29.94 31.244,29.706 31.637,29.768 31.871,30.091
										31.809,30.484 31.487,30.718 							"/>
							</g>
						</g>
					</g>
					<g>
						<polygon fill="#0A9CAE"
								 points="24.522,43.646 26.684,49.476 20.502,48.497 18.339,42.667 					"/>
						<polygon fill="#71CBD3"
								 points="22.36,37.816 24.522,43.646 18.339,42.667 16.177,36.837 					"/>
						<polygon fill="#61C7D1"
								 points="18.339,42.667 20.502,48.497 14.319,47.518 12.157,41.688 					"/>
						<polygon fill="#B1E0E4"
								 points="16.177,36.837 18.339,42.667 12.157,41.688 9.995,35.857 					"/>
					</g>
				</g>
			</g>
		</g>
	</symbol>

	<symbol id="worldview4" viewBox="0 0 100 100">
		<title>World View 4</title>
		<g>
			<polygon fill="#B1E0E4" points="27.71,44.992 19.972,55.838 27.71,60.622 35.449,55.838 		"/>
			<polygon fill="#61C7D1" points="17.355,53.646 9.617,64.491 17.355,69.276 25.094,64.491 		"/>
			<polygon fill="#00A7BB" points="38.443,54.096 30.705,64.942 38.443,69.726 46.182,64.942 		"/>
			<polygon fill="#0A6D88" points="27.71,63.491 19.972,74.336 27.71,79.12 35.449,74.336 		"/>
			<polygon fill="#80CFD7" points="76.649,44.544 70.25,44.544 67.051,47.213 67.051,54.414 70.25,57.083 70.25,57.167
				76.649,57.167 76.649,57.083 79.849,54.414 79.849,47.213 		"/>
			<polygon fill="#00B0C1" points="65.194,54.924 58.795,54.924 55.595,57.593 55.595,64.794 58.795,67.463 58.795,67.547
				65.194,67.547 65.194,67.463 68.393,64.794 68.393,57.593 		"/>
			<polygon fill="#128B9F" points="88.105,54.924 81.706,54.924 78.507,57.593 78.507,64.794 81.706,67.463 81.706,67.547
				88.105,67.547 88.105,67.463 91.304,64.794 91.304,57.593 		"/>
			<polygon fill="#0A9CAE" points="76.649,65.561 70.25,65.561 67.051,68.23 67.051,75.431 70.25,78.1 70.25,78.184 76.649,78.184
				76.649,78.1 79.849,75.431 79.849,68.23 		"/>
			<polygon fill="#80CFD7"
					 points="50.014,13.441 42.514,17.951 42.514,24.446 50.014,28.957 57.515,24.446 57.515,17.951 		"/>
			<polygon fill="#00B0C1" points="50.014,13.441 50.014,28.957 57.515,24.446 57.515,17.951 		"/>
			<polygon fill="#4AC2CC"
					 points="37.558,23.482 30.057,27.993 30.057,34.488 37.558,38.999 45.059,34.488 45.059,27.993 		"/>
			<polygon fill="#004F72"
					 points="62.471,23.482 54.97,27.993 54.97,34.488 62.471,38.999 69.972,34.488 69.972,27.993 		"/>
			<polygon fill="#128B9F"
					 points="50.014,34.453 42.514,38.964 42.514,45.459 50.014,49.97 57.515,45.459 57.515,38.964 		"/>
			<polygon fill="#0A9CAE" points="37.558,23.482 37.558,38.999 45.059,34.488 45.059,27.993 		"/>
			<polygon fill="#0A4065" points="62.471,23.482 62.471,38.999 69.972,34.488 69.972,27.993 		"/>
			<polygon fill="#0A6D88" points="50.014,34.453 50.014,49.97 57.515,45.459 57.515,38.964 		"/>
		</g>
		<g>
			<polygon fill="#B1E0E4" points="19.957,55.837 27.696,44.992 27.696,60.622 		"/>
			<polygon fill="#69C9D2" points="35.435,55.837 27.696,44.992 27.696,60.622 		"/>
		</g>
		<g>
			<polygon fill="#61C7D1" points="9.602,64.491 17.341,53.646 17.341,69.276 		"/>
			<polygon fill="#00B0C1" points="25.08,64.491 17.341,53.646 17.341,69.276 		"/>
		</g>
		<g>
			<polygon fill="#00A7BB" points="30.69,64.941 38.429,54.096 38.429,69.726 		"/>
			<polygon fill="#0A6D88" points="46.167,64.941 38.429,54.096 38.429,69.726 		"/>
		</g>
		<g>
			<polygon fill="#0A6D88" points="19.957,74.336 27.696,63.491 27.696,79.12 		"/>
			<polygon fill="#143459" points="35.435,74.336 27.696,63.491 27.696,79.12 		"/>
		</g>
		<path fill="#00A7BB" d="M50,100C22.43,100,0,77.57,0,50S22.43,0,50,0s50,22.43,50,50S77.57,100,50,100z M50,3.846
			C24.551,3.846,3.846,24.551,3.846,50S24.551,96.154,50,96.154S96.154,75.449,96.154,50S75.449,3.846,50,3.846z"/>
		<g>
			<polygon fill="#80CFD7"
					 points="70.236,49.882 67.037,47.213 70.236,44.544 76.635,44.544 79.834,47.213 76.635,49.882 		"/>
			<polygon fill="#0A6D88" points="76.635,57.083 79.834,54.414 79.834,47.213 76.635,49.882 		"/>
			<polygon fill="#69C9D2" points="70.236,57.083 67.037,54.414 67.037,47.213 70.236,49.882 		"/>
			<rect x="70.236" y="49.882" fill="#00B0C1" width="6.399" height="7.285"/>
		</g>
		<g>
			<g>
				<polygon fill="#00B0C1"
						 points="58.781,60.263 55.581,57.593 58.781,54.924 65.179,54.924 68.379,57.593 65.179,60.263 			"/>
				<polygon fill="#128B9F"
						 points="65.179,67.463 68.379,64.794 68.379,57.593 65.179,60.263 			"/>
				<polygon fill="#4AC2CC"
						 points="58.781,67.463 55.581,64.794 55.581,57.593 58.781,60.263 			"/>
				<rect x="58.781" y="60.263" fill="#0A9CAE" width="6.399" height="7.285"/>
			</g>
			<g>
				<polygon fill="#128B9F"
						 points="81.692,60.263 78.492,57.593 81.692,54.924 88.09,54.924 91.29,57.593 88.09,60.263 			"/>
				<polygon fill="#152C50" points="88.09,67.463 91.29,64.794 91.29,57.593 88.09,60.263 			"/>
				<polygon fill="#004F72"
						 points="81.692,67.463 78.492,64.794 78.492,57.593 81.692,60.263 			"/>
				<rect x="81.692" y="60.263" fill="#0A4065" width="6.399" height="7.285"/>
			</g>
		</g>
		<g>
			<polygon fill="#0A9CAE"
					 points="70.236,70.899 67.037,68.23 70.236,65.561 76.635,65.561 79.834,68.23 76.635,70.899 		"/>
			<polygon fill="#0A6D88" points="76.635,78.1 79.834,75.431 79.834,68.23 76.635,70.899 		"/>
			<polygon fill="#00A7BB" points="70.236,78.1 67.037,75.431 67.037,68.23 70.236,70.899 		"/>
			<rect x="70.236" y="70.899" fill="#128B9F" width="6.399" height="7.285"/>
		</g>
		<g>
			<polygon fill="#0A6D88" points="50,27.186 57.501,24.446 57.501,17.951 50,20.194 		"/>
			<polygon fill="#0A9CAE" points="50,20.194 57.501,17.951 50,13.441 		"/>
			<polygon fill="#80CFD7" points="50,20.194 42.499,17.951 50,13.441 		"/>
			<polygon fill="#132348" points="50,27.186 57.501,24.446 50,28.957 		"/>
			<polygon fill="#0A6D88" points="50,27.186 42.499,24.446 50,28.957 		"/>
			<polygon fill="#00B0C1" points="50,27.186 42.499,24.446 42.499,17.951 50,20.194 		"/>
		</g>
		<g>
			<polygon fill="#128B9F" points="37.544,37.227 45.045,34.488 45.045,27.993 37.544,30.236 		"/>
			<polygon fill="#0A9CAE" points="37.544,30.236 45.045,27.993 37.544,23.482 		"/>
			<polygon fill="#80CFD7" points="37.544,30.236 30.043,27.993 37.544,23.482 		"/>
			<polygon fill="#0A6D88" points="37.544,37.227 45.045,34.488 37.544,38.999 		"/>
			<polygon fill="#128B9F" points="37.544,37.227 30.043,34.488 37.544,38.999 		"/>
			<polygon fill="#4AC2CC" points="37.544,37.227 30.043,34.488 30.043,27.993 37.544,30.236 		"/>
		</g>
		<g>
			<polygon fill="#0A4065" points="62.457,37.227 69.958,34.488 69.958,27.993 62.457,30.236 		"/>
			<polygon fill="#0A6D88" points="62.457,30.236 69.958,27.993 62.457,23.482 		"/>
			<polygon fill="#128B9F" points="62.457,30.236 54.956,27.993 62.457,23.482 		"/>
			<polygon fill="#0D183C" points="62.457,37.227 69.958,34.488 62.457,38.999 		"/>
			<polygon fill="#132348" points="62.457,37.227 54.956,34.488 62.457,38.999 		"/>
			<polygon fill="#004F72" points="62.457,37.227 54.956,34.488 54.956,27.993 62.457,30.236 		"/>
		</g>
		<g>
			<polygon fill="#0A6D88" points="50,48.198 57.501,45.459 57.501,38.964 50,41.207 		"/>
			<polygon fill="#128B9F" points="50,41.207 57.501,38.964 50,34.453 		"/>
			<polygon fill="#00A7BB" points="50,41.207 42.499,38.964 50,34.453 		"/>
			<polygon fill="#132348" points="50,48.198 57.501,45.459 50,49.97 		"/>
			<polygon fill="#0A6D88" points="50,48.198 42.499,45.459 50,49.97 		"/>
			<polygon fill="#128B9F" points="50,48.198 42.499,45.459 42.499,38.964 50,41.207 		"/>
		</g>
	</symbol>
</svg>
